<svg viewBox="0 0 48 48" xml:space="preserve" xmlns="http://www.w3.org/2000/svg"><path d="M40 11v32c0 1.65-1.35 3-3 3H11c-1.65 0-3-1.35-3-3V6c0-2.21 1.79-4 4-4h19c.27 0 .52.11.71.29l8 8c.18.19.29.44.29.71z" fill="#e80400" class="fill-009ce7"></path><path d="M40 11.58V14h-8c-.55 0-1-.45-1-1V4h1c.27 0 .52.11.71.29L40 11.58z" fill="#cf201d" class="fill-1e81ce"></path><path d="M40 11v1h-9c-.55 0-1-.45-1-1V2h1c.27 0 .52.11.71.29l8 8c.18.19.29.44.29.71z" fill="#ebebeb" class="fill-ebebeb"></path><path d="M23 16c-4.96 0-9 4.04-9 9s4.04 9 9 9 9-4.04 9-9-4.04-9-9-9zm0 16c-3.86 0-7-3.14-7-7s3.14-7 7-7 7 3.14 7 7-3.14 7-7 7z" fill="#cf201d" class="fill-1e81ce"></path><path d="M28 25c0 .55-.45 1-1 1h-3v3c0 .55-.45 1-1 1s-1-.45-1-1v-3h-3c-.55 0-1-.45-1-1s.45-1 1-1h3v-3c0-.55.45-1 1-1s1 .45 1 1v3h3c.55 0 1 .45 1 1z" fill="#cf201d" class="fill-1e81ce"></path><path d="M24 15c-4.96 0-9 4.04-9 9s4.04 9 9 9 9-4.04 9-9-4.04-9-9-9zm0 16c-3.86 0-7-3.14-7-7s3.14-7 7-7 7 3.14 7 7-3.14 7-7 7z" fill="#ebebeb" class="fill-ebebeb"></path><path d="M29 24c0 .55-.45 1-1 1h-3v3c0 .55-.45 1-1 1s-1-.45-1-1v-3h-3c-.55 0-1-.45-1-1s.45-1 1-1h3v-3c0-.55.45-1 1-1s1 .45 1 1v3h3c.55 0 1 .45 1 1z" fill="#ebebeb" class="fill-ebebeb"></path></svg>