<svg viewBox="0 0 32 32" xml:space="preserve" xmlns="http://www.w3.org/2000/svg"><path d="M27 13h-1V9c0-1.65-1.35-3-3-3H9C7.35 6 6 7.35 6 9v14c0 1.65 1.35 3 3 3h14c1.65 0 3-1.35 3-3v-4h1a1 1 0 0 0 1-1v-4a1 1 0 0 0-1-1zm-10 7c-1.02 0-1.97-.31-2.76-.82l-2.53 2.53c-.2.19-.45.29-.71.29s-.51-.1-.71-.29c-.39-.39-.39-1.03 0-1.42l2.53-2.53c-.51-.79-.82-1.74-.82-2.76 0-2.76 2.24-5 5-5s5 2.24 5 5-2.24 5-5 5z" fill="#ffffff" class="fill-364f6b"></path><path d="M19.38 4h2.04l-.44-2.2c-.09-.46-.5-.8-.98-.8h-8c-.48 0-.89.34-.98.8L10.58 4h8.8zM12.62 28h-2.04l.44 2.2c.09.46.5.8.98.8h8c.48 0 .89-.34.98-.8l.44-2.2h-8.8z" fill="#3FC1C9" class="fill-3fc1c9"></path><path d="M17 12c-1.65 0-3 1.35-3 3 0 .82.34 1.58.88 2.12s1.3.88 2.12.88c1.65 0 3-1.35 3-3s-1.35-3-3-3z" fill="#ffffff" class="fill-364f6b"></path></svg>